<?xml version="1.0" encoding="utf-8"?>
<!-- Generator: Adobe Illustrator 24.0.1, SVG Export Plug-In . SVG Version: 6.00 Build 0)  -->
<svg version="1.1" id="Capa_1" xmlns="http://www.w3.org/2000/svg" xmlns:xlink="http://www.w3.org/1999/xlink" x="0px" y="0px"
	 viewBox="0 0 80 80" style="enable-background:new 0 0 80 80;" xml:space="preserve">
<g>
	<path d="M79.9,64.2v-30V14.9c0-2.2,0.4-4.7-0.9-6.6C77.9,6.7,76.1,6,74.1,6h-9H33.9H23.4c-0.8,0-1.6,0-2.4,0.1
		c-2,0.3-3.6,2-4.1,3.9c-0.2,0.8-0.1,1.7-0.1,2.5v22.3h-3.9H6.5c-1.5,0-2.6,0.8-3.1,2.2c-0.2,0.6-0.2,1.3,0,2
		c-1.6,0.7-2.2,2.7-1.7,4.4H1.4H1.3C0.6,43.4,0,44,0,44.6c0.7,7.8,1.3,15.6,2,23.5c0.2,3.1,2.2,5.3,5.3,5.7c0.7,0.1,1.4,0,2,0h3.8
		c2,0,4.2,0.3,6.2-0.2c0.2-0.1,0.4-0.2,0.7-0.3c1,0.4,2,0.5,3.1,0.5H27h13.6h29.7c2.5,0,5.8,0.5,7.8-1.2
		C80.5,70.6,79.9,67.1,79.9,64.2 M19.3,11c0-1.4,1.4-2.5,2.7-2.5h1.9H35h31.2h8.2c1.7,0,3,1.1,3,2.9v6.8V20H60.3H28.8h-9.5V13
		C19.3,12.4,19.2,11.7,19.3,11 M6.7,37.3h6.8h4.9h0.9c0.7,0,0.7,1.4,0,1.4H7.1c0,0,0,0,0,0H6.3c-0.3,0-0.5-0.1-0.5-0.5
		C5.7,37.4,6,37.3,6.7,37.3 M4.1,42.3c0-0.4-0.1-1.1,0.5-1.1h1.3h1.1c1.9,0.1,3.9,0,5.8,0h4.1h3.9c0.3,0,0.6-0.1,0.8,0.3
		c0.1,0.3,0,0.8,0,1.1s0,0.7-0.5,0.8H8.8H4.5C4,43.4,4.1,42.7,4.1,42.3 M10.6,71.4c-2.1,0-4.5,0.4-5.7-1.8c-0.6-1-0.5-2.6-0.6-3.7
		c-0.6-6.7-1.1-13.4-1.7-20h1.6c0.1,0,0.2,0,0.3,0h4.6h12c0.1,0,0.1,0,0.2,0H23c-0.6,7.4-1.2,14.8-1.9,22.2c-0.2,2-1.6,3.2-3.6,3.2
		H10.6z M77.4,66.1v2.5c0,1.7-1.3,2.8-2.9,2.8h-7.8H35.6h-10h-2.8c-0.1,0-0.2,0-0.3,0c0.4-0.5,0.7-1.1,0.9-1.7
		c0.2-0.6,0.2-1.2,0.3-1.8c0.6-7.8,1.3-15.5,1.9-23.3c0.1-0.6-0.3-1-0.7-1.1c-0.2-0.1-0.3-0.1-0.6-0.1H24c0.1-0.4,0-0.9,0-1.3
		c0-1.4-0.6-2.7-1.8-3.2c0.2-0.5,0.2-1.1,0.1-1.7c-0.3-1.5-1.5-2.3-3-2.4V22.5h17.2h31.5h9.5v14.8V66.1z"/>
	<path d="M57.9,28.6c-6.8-3.6-15.4-2.9-21.6,1.6c-6.3,4.6-9.4,12.3-8.2,20c1.1,7.5,6.7,13.8,13.8,16.2c6.2,2.2,13.4,1,18.7-2.9
		c5.3-3.9,8.4-10,8.5-16.6c0,0,0-0.1,0-0.1C68.9,39.3,64.6,32.2,57.9,28.6 M55.1,63.8c-7,2.8-15,0.9-20.1-4.6
		c-5.1-5.4-6.2-13.7-2.9-20.3c3.3-6.7,10.5-10.6,17.9-10c9.3,0.7,16.5,8.9,16.5,18.1C66.4,54.3,61.9,61,55.1,63.8"/>
	<path d="M49.8,31.6c-7.8-0.8-15.1,4.9-16.5,12.5c-1.5,7.8,3.4,15.5,10.9,17.7c7.6,2.2,15.7-2.1,18.5-9.4c0.7-1.7,1-3.5,1-5.3
		c0,0,0-0.1,0-0.1C63.7,39,57.6,32.5,49.8,31.6 M57,56.5c-2.7,2.5-6.4,3.6-10,3.2c-7.5-0.7-12.7-8.2-11.2-15.4
		c1.3-6.5,7.5-10.8,14-10.2c6.5,0.6,11.4,6.4,11.5,12.8C61.2,50.6,59.7,54,57,56.5"/>
	<path d="M27.7,17.8c2,0.1,3.5-1.7,3.6-3.6c-0.1-2-1.6-3.5-3.6-3.6c-2-0.1-3.5,1.7-3.6,3.6C24,16.3,25.8,17.8,27.7,17.8 M28.8,14.2
		c-0.1,1.4-2.1,1.4-2.2,0C26.5,12.8,28.7,12.8,28.8,14.2"/>
	<path d="M36.8,17.8c2,0.1,3.5-1.7,3.6-3.6c-0.1-2-1.6-3.5-3.6-3.6c-2-0.1-3.5,1.7-3.6,3.6C33.1,16.3,35,17.8,36.8,17.8 M37.9,14.2
		c-0.1,1.4-2.1,1.4-2.2,0C35.7,12.8,37.9,12.8,37.9,14.2"/>
	<path d="M46,17.8c2,0.1,3.5-1.7,3.6-3.6c-0.1-2-1.6-3.5-3.6-3.6c-2-0.1-3.5,1.7-3.6,3.6C42.3,16.3,44.1,17.8,46,17.8 M47.1,14.2
		c-0.1,1.4-2.1,1.4-2.2,0C44.8,12.8,47.1,12.8,47.1,14.2"/>
</g>
</svg>
