<?xml version="1.0" encoding="utf-8"?>
<!-- Generator: Adobe Illustrator 24.0.1, SVG Export Plug-In . SVG Version: 6.00 Build 0)  -->
<svg version="1.1" id="Capa_1" xmlns="http://www.w3.org/2000/svg" xmlns:xlink="http://www.w3.org/1999/xlink" x="0px" y="0px"
	 viewBox="0 0 80 80" style="enable-background:new 0 0 80 80;" xml:space="preserve">
<g>
	<path d="M78.6,77.9L78.6,77.9l-0.5,0V25.5c0-0.3-0.1-0.6-0.4-0.8c-0.3-0.2-0.6-0.3-0.9-0.2l-15.3,3.5v-9.1c0,0,0,0,0,0c0,0,0,0,0,0
		v-14c0-0.3-0.1-0.9-0.7-1.4c-2.3-2.2-13.3-3.9-20.9-3.3C25.3,1.2,18.5,6.1,18.5,9v18.9L3.2,24.5c-0.3-0.1-0.6,0-0.9,0.2
		c-0.3,0.2-0.4,0.5-0.4,0.8v52.4H1.4c-0.6,0-1.1,0.5-1.1,1.1c0,0.6,0.5,1.1,1.1,1.1h77.1c0.6,0,1.1-0.5,1.1-1.1
		C79.6,78.4,79.1,77.9,78.6,77.9z M18.5,77.9H4V26.8l14.5,3.3V77.9z M40.1,2.2c8.2-0.6,18.4,1.5,19.3,2.6l0,11.8
		c-2.5-1.2-6.8-1.8-9.5-2.1c0-0.2,0.1-0.3,0.1-0.5c0-5.5-4.5-9.9-10-9.9C34.5,4,30,8.4,30,13.9c0,0.6,0.1,1.2,0.2,1.7
		c-4.5,1.1-7.7,2.7-9.6,4.2l0-10.9C20.7,7.9,25.8,3.3,40.1,2.2z M47.8,13.9c0,4.3-3.5,7.8-7.8,7.8c-4.3,0-7.8-3.5-7.8-7.8
		c0-4.3,3.5-7.8,7.8-7.8C44.3,6.1,47.8,9.6,47.8,13.9z M20.6,23.1C20.6,23.1,20.6,23.1,20.6,23.1c0-0.7,2.6-3.5,10.2-5.4
		c1.5,3.6,5,6.2,9.2,6.2c4.6,0,8.4-3.1,9.6-7.4c5.6,0.6,9.4,1.9,9.8,2.3l0,9.6c-3.9-1.7-12.9-2.9-19.4-2.4
		c-10,0.8-16.3,3.3-19.3,5.7V23.1z M46.5,77.8H33.5V59.1h13.1V77.8z M59.4,77.9H48.6V58c0-0.6-0.5-1.1-1.1-1.1H32.4
		c-0.6,0-1.1,0.5-1.1,1.1v19.9H20.6l0-19.3c0,0,0,0,0,0c0-1.1,5.2-5.7,19.5-6.8c8.2-0.6,18.4,1.5,19.3,2.6L59.4,77.9z M59.4,52.1
		c-3.9-1.7-12.9-2.9-19.4-2.4c-10,0.8-16.3,3.3-19.3,5.7v-8.6c0,0,0,0,0,0c0-1.1,5.2-5.7,19.5-6.8c8.2-0.6,18.4,1.5,19.3,2.6
		L59.4,52.1z M59.4,40.3c-3.9-1.7-12.9-2.9-19.4-2.4c-10,0.8-16.3,3.3-19.3,5.7v-8.6c0,0,0,0,0,0c0-1.1,5.2-5.7,19.5-6.8
		c8.2-0.6,18.4,1.5,19.3,2.6L59.4,40.3z M75.9,77.9H61.5l0-23.5c0,0,0,0,0,0c0,0,0-0.1,0-0.1V42.5c0,0,0,0,0,0c0,0,0-0.1,0-0.1V30.7
		c0,0,0,0,0,0c0,0,0-0.1,0-0.1v-0.5l14.5-3.3L75.9,77.9z"/>
	<path d="M65.5,41.7H72c0.6,0,1.1-0.5,1.1-1.1v-8.3c0-0.6-0.5-1.1-1.1-1.1h-6.5c-0.6,0-1.1,0.5-1.1,1.1v8.3
		C64.4,41.2,64.9,41.7,65.5,41.7z M66.5,33.3h4.4v6.2h-4.4V33.3z"/>
	<path d="M65.5,55H72c0.6,0,1.1-0.5,1.1-1.1v-8.3c0-0.6-0.5-1.1-1.1-1.1h-6.5c-0.6,0-1.1,0.5-1.1,1.1v8.3C64.4,54.5,64.9,55,65.5,55
		z M66.5,46.6h4.4v6.2h-4.4V46.6z"/>
	<path d="M65.5,68.3H72c0.6,0,1.1-0.5,1.1-1.1v-8.3c0-0.6-0.5-1.1-1.1-1.1h-6.5c-0.6,0-1.1,0.5-1.1,1.1v8.3
		C64.4,67.8,64.9,68.3,65.5,68.3z M66.5,59.9h4.4v6.2h-4.4V59.9z"/>
	<path d="M8,41.7L8,41.7l6.5,0c0.6,0,1.1-0.5,1.1-1.1v-8.3c0-0.6-0.5-1.1-1.1-1.1l-6.5,0c-0.6,0-1.1,0.5-1.1,1.1v8.3
		C7,41.2,7.4,41.7,8,41.7z M9.1,33.3h4.4v6.2l-4.4,0V33.3z"/>
	<path d="M8,55L8,55l6.5,0c0.6,0,1.1-0.5,1.1-1.1v-8.3c0-0.6-0.5-1.1-1.1-1.1l-6.5,0C7.4,44.5,7,45,7,45.6v8.3C7,54.5,7.4,55,8,55z
		 M9.1,46.6h4.4v6.2H9.1V46.6z"/>
	<path d="M8,68.3L8,68.3l6.5,0c0.6,0,1.1-0.5,1.1-1.1l0-8.3c0-0.6-0.5-1.1-1.1-1.1l-6.5,0c-0.6,0-1.1,0.5-1.1,1.1v8.3
		C7,67.8,7.4,68.3,8,68.3z M9.1,59.9h4.4v6.2l-4.4,0V59.9z"/>
	<path d="M36.1,64.4h6.4v0.5c0,0.6,0.5,1.1,1.1,1.1c0.6,0,1.1-0.5,1.1-1.1v-1.6c0-0.6-0.5-1.1-1.1-1.1h-7.4c-0.6,0-1.1,0.5-1.1,1.1
		C35,63.9,35.5,64.4,36.1,64.4z"/>
	<path d="M36.1,69.6L36.1,69.6l6.4,0v0.5c0,0.6,0.5,1.1,1.1,1.1c0.6,0,1.1-0.5,1.1-1.1v-1.6c0-0.6-0.5-1.1-1.1-1.1h-7.4
		c-0.6,0-1.1,0.5-1.1,1.1C35,69.2,35.5,69.6,36.1,69.6z"/>
	<path d="M36.1,74.9L36.1,74.9l6.4,0v0.5c0,0.6,0.5,1.1,1.1,1.1c0.6,0,1.1-0.5,1.1-1.1v-1.6c0-0.6-0.5-1.1-1.1-1.1h-7.4
		c-0.6,0-1.1,0.5-1.1,1.1C35,74.4,35.5,74.9,36.1,74.9z"/>
	<path d="M53.8,58.7c-0.6,0-1.1,0.5-1.1,1.1v14.1c0,0.6,0.5,1.1,1.1,1.1s1.1-0.5,1.1-1.1V59.7C54.9,59.2,54.4,58.7,53.8,58.7z"/>
	<path d="M25.9,58.7c-0.6,0-1.1,0.5-1.1,1.1v14.1c0,0.6,0.5,1.1,1.1,1.1c0.6,0,1.1-0.5,1.1-1.1V59.7C26.9,59.2,26.5,58.7,25.9,58.7z
		"/>
	<path d="M44.2,11.6c-0.1-0.5-0.5-0.9-1-0.9h-0.5v-0.5c0-1.5-1.2-2.7-2.7-2.7c-1.5,0-2.7,1.2-2.7,2.7v0.5h-0.5c-0.5,0-1,0.4-1,0.9
		L35,17.3c0,0.3,0.1,0.6,0.3,0.8c0.2,0.2,0.5,0.4,0.8,0.4h0h8c0.3,0,0.6-0.1,0.8-0.4c0.2-0.2,0.3-0.5,0.3-0.8L44.2,11.6z M39.4,10.2
		c0-0.7,1.3-0.7,1.3,0v0.5h-1.3V10.2z M37.2,16.4l0.5-3.6h4.6l0.5,3.6H37.2z"/>
</g>
</svg>
