<?xml version="1.0" encoding="utf-8"?>
<!-- Generator: Adobe Illustrator 24.0.1, SVG Export Plug-In . SVG Version: 6.00 Build 0)  -->
<svg version="1.1" id="Capa_1" xmlns="http://www.w3.org/2000/svg" xmlns:xlink="http://www.w3.org/1999/xlink" x="0px" y="0px"
	 viewBox="0 0 80 80" style="enable-background:new 0 0 80 80;" xml:space="preserve">
<g>
	<path d="M80,24.5c0-10.7-7.5-19.4-16.8-19.4c-6.7,0-12.8,4.7-15.4,11.7c-8,0.7-14.3,7.9-14.3,16.7c0,8.8,6.3,16,14.2,16.8v21.9H8
		c1.4,0,2.7-0.4,3.9-1.2c1.9-1.2,3.1-3.1,3.5-5.3h5.3c0.3,0,0.6-0.1,0.9-0.3l13.1-11.9l1,3.9c-2.4,1-4.1,3.2-4.5,5.7
		c-0.5,2.5,0.3,5.1,2.2,6.9c1.8,1.8,4.5,2.6,7,2.1c2.5-0.5,4.6-2.3,5.6-4.6c1-2.4,0.7-5.1-0.7-7.2c-1.4-2.1-3.8-3.4-6.4-3.4h-0.6
		l-3.3-13.2c-0.1-0.6-0.7-1-1.3-1h-6.5v2.6h5.4l1.3,5.2H18.9l-0.6-2.6h3.6v-2.6H11.6v2.6h4.1l0.8,3.7l-5,6.3l0,0
		c-1.9-1.1-4.2-1.3-6.3-0.5c-2.1,0.7-3.8,2.3-4.6,4.3c-0.8,2-0.8,4.3,0.2,6.3c1,2,2.7,3.5,4.8,4.1c0.6,0.2,1.3,0.3,1.9,0.3H1.3
		c-0.7,0-1.3,0.6-1.3,1.3v5.2c0,0.3,0.1,0.7,0.4,0.9C0.6,79.9,1,80,1.3,80h77.4c0.3,0,0.7-0.1,0.9-0.4c0.2-0.2,0.4-0.6,0.4-0.9v-5.2
		c0-0.3-0.1-0.7-0.4-0.9c-0.2-0.2-0.6-0.4-0.9-0.4h-9v-13C75.5,58.5,80,53.1,80,46.4l0,0c0-3.6-1.4-7-3.9-9.6
		C78.7,33.3,80,28.9,80,24.5z M37.4,64.8l2.6-0.6l-1.3-4.9c1.4,0,2.7,0.5,3.6,1.5c1,1,1.5,2.3,1.5,3.6l0,0c0,1.2-0.4,2.4-1.2,3.3
		c-0.8,0.9-1.9,1.6-3.1,1.8c-1.2,0.2-2.4,0-3.5-0.6c-1.1-0.6-1.8-1.6-2.2-2.8c-0.4-1.2-0.4-2.4,0.1-3.6c0.4-1.1,1.3-2.1,2.4-2.7
		L37.4,64.8z M31.5,52.9L21.4,62l-2-9.1H31.5z M17.2,54.7l1.8,8.5h-3.7c-0.2-1.4-0.9-2.8-1.9-3.9L17.2,54.7z M11.9,61.4
		c0.4,0.5,0.7,1.1,0.9,1.8h-2.3L11.9,61.4z M3.3,67.1c-0.9-1.6-0.9-3.6,0-5.2c0.9-1.6,2.6-2.6,4.5-2.6c0.7,0,1.4,0.2,2.1,0.5
		l-3.1,3.9c-0.3,0.4-0.3,0.9-0.2,1.3c0.2,0.5,0.6,0.8,1.2,0.8h5c-0.3,1.1-0.9,2.1-1.8,2.8c-0.9,0.7-2,1.1-3.1,1.1l0,0
		C5.9,69.7,4.2,68.7,3.3,67.1z M63.2,7.7L63.2,7.7c7.8,0,14.2,7.5,14.2,16.8c0,3.8-1.1,7.6-3.3,10.7c-1.7-1.1-3.7-1.7-5.7-1.7
		c-1.3,0-2.6,0.3-3.9,0.8v-0.8c0-8.7-6.1-15.8-13.9-16.7C53,11.3,57.9,7.7,63.2,7.7z M36.1,33.5L36.1,33.5c0-7.8,5.8-14.2,12.9-14.2
		s12.9,6.4,12.9,14.2c0,0.8-0.1,1.6-0.2,2.3c-2.7,2.2-4.5,5.4-4.9,8.9c-1.9,1.6-4.1,2.6-6.6,2.9v-9.7l4.8-4.8l-1.8-1.8l-3,3v-5.9
		h-2.6v11.1l-3-3L43,38.3l4.8,4.8v4.6C41.3,46.9,36.1,40.9,36.1,33.5z M61.9,57.2v15.1H50.3V50.3c2.3-0.2,4.6-1,6.5-2.2
		C57.2,51.7,59.1,55,61.9,57.2z M77.4,74.8v2.6H2.6v-2.6H77.4z M64.5,72.2V58.6c0.8,0.3,1.7,0.6,2.6,0.7v13L64.5,72.2z M77.4,46.4
		c0,5.2-3.4,9.5-7.7,10.2v-7.1l3.5-3.5l-1.8-1.8l-1.7,1.7v-2.1h-2.6v5.9l-1.7-1.7l-1.8,1.8l3.5,3.5v3.2c-4.4-0.7-7.7-5-7.7-10.2
		c0-5.7,4.1-10.3,9-10.3S77.4,40.8,77.4,46.4z"/>
	<path d="M5.2,29.7L5.2,29.7h10.3c1.8,0,3.5-1,4.4-2.7c0.9-1.6,0.9-3.6-0.1-5.2c-0.9-1.6-2.7-2.5-4.5-2.5c-0.4-1.5-1.4-2.7-2.8-3.4
		c-1.4-0.7-3-0.7-4.4,0c-1.4,0.7-2.4,1.9-2.8,3.4c-1.8,0-3.6,0.9-4.5,2.5c-0.9,1.6-1,3.5-0.1,5.2C1.6,28.6,3.3,29.6,5.2,29.7z
		 M2.9,23.2c0.5-0.8,1.3-1.3,2.2-1.3c0.3,0,0.6,0.1,0.9,0.2c0.4,0.2,0.9,0.1,1.2-0.2c0.3-0.3,0.5-0.7,0.5-1.1l0-0.2
		c0-0.9,0.5-1.8,1.3-2.2c0.8-0.5,1.8-0.5,2.6,0c0.8,0.5,1.3,1.3,1.3,2.2v0.2c0,0.4,0.2,0.9,0.5,1.1c0.3,0.3,0.8,0.3,1.2,0.2
		c0.3-0.1,0.6-0.2,0.9-0.2c0.9,0,1.8,0.5,2.2,1.3c0.5,0.8,0.5,1.8,0,2.6c-0.5,0.8-1.3,1.3-2.2,1.3H5.2c-0.9,0-1.8-0.5-2.2-1.3
		C2.5,25,2.5,24,2.9,23.2z"/>
	<path d="M24.5,14.2L24.5,14.2l10.3,0c1.8,0,3.5-1,4.4-2.7c0.9-1.6,0.9-3.6-0.1-5.2c-0.9-1.6-2.7-2.5-4.5-2.5
		c-0.4-1.5-1.4-2.7-2.8-3.4c-1.4-0.7-3-0.7-4.4,0c-1.4,0.7-2.4,1.9-2.8,3.4c-1.4,0-2.7,0.5-3.7,1.5c-1,1-1.5,2.3-1.6,3.6
		c0,1.4,0.5,2.7,1.5,3.7C21.8,13.6,23.2,14.2,24.5,14.2z M22.3,7.7c0.5-0.8,1.3-1.3,2.2-1.3c0.3,0,0.6,0.1,0.9,0.2
		c0.4,0.1,0.9,0.1,1.2-0.2c0.3-0.3,0.5-0.7,0.5-1.1l0-0.2c0-0.9,0.5-1.8,1.3-2.2c0.8-0.5,1.8-0.5,2.6,0c0.8,0.5,1.3,1.3,1.3,2.2v0.2
		c0,0.4,0.2,0.9,0.5,1.1c0.3,0.3,0.8,0.3,1.2,0.2c0.3-0.1,0.6-0.2,0.9-0.2c0.9,0,1.8,0.5,2.2,1.3c0.5,0.8,0.5,1.8,0,2.6
		c-0.5,0.8-1.3,1.3-2.2,1.3H24.5c-0.9,0-1.8-0.5-2.2-1.3C21.8,9.5,21.8,8.5,22.3,7.7z"/>
</g>
</svg>
