<?xml version="1.0" encoding="utf-8"?>
<!-- Generator: Adobe Illustrator 24.0.1, SVG Export Plug-In . SVG Version: 6.00 Build 0)  -->
<svg version="1.1" id="Capa_1" xmlns="http://www.w3.org/2000/svg" xmlns:xlink="http://www.w3.org/1999/xlink" x="0px" y="0px"
	 viewBox="0 0 80 80" style="enable-background:new 0 0 80 80;" xml:space="preserve">
<g>
	<path d="M79.1,63.5h-3.8l-6.4-17c2.5-1.4,4.9-4.1,5.4-9c0.6-4.9,1.1-9.9,1.4-14.1c0.1-1-0.5-3.2-2.7-3.5c-1.1-0.1-1.9,0.1-2.6,0.6
		c-0.9,0.7-1.2,1.9-1.2,2.7L69.1,24c-0.3,2.8-1.2,11.2-1.6,12.8c-0.1,0.4-1,4.4-4.6,4.4H50.3v6.6H56l-5.7,15.7h-9.2V35.3h19.7
		c1.4,0,2.5-1.1,2.5-2.5v-2.2c0-1.4-1.1-2.5-2.5-2.5h-7v-2.6h2v-1.8h-2V21h-7.7v7.1H32.4l-0.2-9.1h-2.9l-1.5-4.2l-1.7,0.6l1.3,3.6
		h-2.9v9.1h-5c-1.4,0-2.5,1.1-2.5,2.5v2.2c0,1.4,1.1,2.5,2.5,2.5h19.7v28.2h-9.2l-5.7-15.8h5.7v-6.6H17.5c-3.6,0-4.5-3.9-4.6-4.4
		c-0.3-1.6-1.2-9.8-1.6-12.8l-0.1-0.9c-0.1-0.8-0.3-2-1.2-2.8c-0.6-0.5-1.5-0.7-2.6-0.6c-2.3,0.3-2.8,2.5-2.7,3.6
		c0.1,1.8,0.6,6.9,1.4,14.1c0.6,4.9,2.9,7.6,5.4,9L5.1,63.5H0.9c-0.5,0-0.9,0.4-0.9,0.9c0,0.5,0.4,0.9,0.9,0.9h78.2
		c0.5,0,0.9-0.4,0.9-0.9C80,63.9,79.6,63.5,79.1,63.5z M7.9,37.2C7,30.1,6.6,25,6.5,23.1c0,0-0.1-1.4,1.2-1.5c0.1,0,0.3,0,0.4,0
		c0.3,0,0.6,0.1,0.8,0.2c0.3,0.2,0.5,0.7,0.6,1.5l0.1,0.9c0.3,3.1,1.3,11.2,1.6,13c0.5,2.7,2.5,5.8,6.4,5.8h10.8v2.9H16.1
		C15.8,45.9,8.8,45.8,7.9,37.2z M13.1,47.2c1.1,0.4,2.1,0.5,2.9,0.5h6.4l2,5.5H10.8L13.1,47.2z M7,63.5l3.2-8.4h15l3,8.4H7z
		 M47.9,22.8h4v5.3h-4V22.8z M26.3,20.8h4.2l0.1,7.3h-4.3V20.8z M19.5,33.4c-0.4,0-0.7-0.3-0.7-0.7v-2.2c0-0.4,0.3-0.7,0.7-0.7h41.3
		c0.4,0,0.7,0.3,0.7,0.7v2.2c0,0.4-0.3,0.7-0.7,0.7H19.5z M52.1,45.9V43h10.8c3.9,0,5.8-3.1,6.4-5.8c0.3-1.7,1.3-9.9,1.6-13l0.1-0.8
		c0.1-0.8,0.3-1.3,0.6-1.5c0.2-0.2,0.6-0.3,1.2-0.2c1.2,0.2,1.2,1.5,1.1,1.7c-0.3,4-0.8,9-1.4,13.9c-1,8.6-7.9,8.7-8.2,8.7H52.1z
		 M57.9,47.7h6.4c0.8,0,1.9-0.2,2.9-0.5l2.3,6.1H55.9L57.9,47.7z M52.2,63.5l3-8.4h15l3.2,8.4H52.2z"/>
</g>
</svg>
