<?xml version="1.0" encoding="utf-8"?>
<!-- Generator: Adobe Illustrator 24.0.1, SVG Export Plug-In . SVG Version: 6.00 Build 0)  -->
<svg version="1.1" id="Capa_1" xmlns="http://www.w3.org/2000/svg" xmlns:xlink="http://www.w3.org/1999/xlink" x="0px" y="0px"
	 viewBox="0 0 80 80" style="enable-background:new 0 0 80 80;" xml:space="preserve">
<g>
	<path d="M4.8,35.9c0.5,0,0.9-0.4,0.9-0.9V19.5c3.6-0.7,19.8-3.8,33.1-3.7c13.5,0.1,32.8,3.1,36.9,3.7V35c0,0.5,0.4,0.9,0.9,0.9
		c0.5,0,0.9-0.4,0.9-0.9v-17l-0.8-0.1c-0.2,0-22.8-3.8-38-3.9c-0.2,0-0.4,0-0.6,0c-15.2,0-33.4,3.8-33.6,3.9L3.9,18v17
		C3.9,35.5,4.3,35.9,4.8,35.9"/>
	<path d="M16.1,27.3c4.3-2.4,10.8-3,15.3-1.4c2.9,1,5.7,3.4,5.7,5.9c0,0.5,0.4,0.9,0.9,0.9c0.5,0,0.9-0.4,0.9-0.9
		c0-3.6-3.6-6.5-7-7.7c-5-1.8-12.1-1.2-16.8,1.5c-5.7,3.1-5.1,8.4-5.1,8.7c0.1,0.5,0.5,0.8,0.9,0.8c0,0,0.1,0,0.1,0
		c0.5-0.1,0.9-0.5,0.8-1C12,33.9,11.6,29.8,16.1,27.3"/>
	<path d="M70.2,35.1c0,0,0.1,0,0.1,0c0.5,0,0.9-0.4,0.9-0.8c0-0.2,0.5-5.5-5.1-8.7c-4.8-2.7-11.9-3.3-16.8-1.5c-3.4,1.2-7,4.2-7,7.7
		c0,0.5,0.4,0.9,0.9,0.9c0.5,0,0.9-0.4,0.9-0.9c0-2.5,2.9-4.9,5.7-5.9c4.5-1.6,10.9-1.1,15.3,1.4c4.5,2.5,4.2,6.6,4.2,6.8
		C69.3,34.6,69.7,35.1,70.2,35.1"/>
	<path d="M72.2,39.4c-4.1-0.5-24.7-2.3-33.4-2.3h-0.4c-9.2,0-25.1,1.4-31.5,2.3c-7.1,1.1-7,6.6-7,8.4l0,18.3h80V48.9
		C80,44,76.7,40,72.2,39.4 M78.1,64.2H1.9V48.1l0-0.3c0-1.8-0.1-5.6,5.4-6.4C13.6,40.4,30,39,38.8,39c8.6,0,29,1.8,33.1,2.3
		c3.6,0.5,6.1,3.6,6.1,7.6V64.2z"/>
	<path d="M69.8,53.4H11c-0.5,0-0.9,0.4-0.9,0.9c0,0.5,0.4,0.9,0.9,0.9h58.8c0.5,0,0.9-0.4,0.9-0.9C70.7,53.8,70.3,53.4,69.8,53.4"/>
</g>
</svg>
