<?xml version="1.0" encoding="utf-8"?>
<!-- Generator: Adobe Illustrator 24.0.1, SVG Export Plug-In . SVG Version: 6.00 Build 0)  -->
<svg version="1.1" id="Capa_1" xmlns="http://www.w3.org/2000/svg" xmlns:xlink="http://www.w3.org/1999/xlink" x="0px" y="0px"
	 viewBox="0 0 80 80" style="enable-background:new 0 0 80 80;" xml:space="preserve">
<g>
	<polygon points="20,73.3 20,73.3 20,73.3 	"/>
	<path d="M20,73.3c1.1,0,2.1-0.4,2.8-1.2c0.7-0.8,1.2-1.8,1.2-2.8v-16c0-1.4-0.8-2.7-2-3.5c-1.2-0.7-2.8-0.7-4,0c-1.2,0.7-2,2-2,3.5
		v16c0,1.1,0.4,2.1,1.2,2.8C17.9,72.9,18.9,73.3,20,73.3z M18.7,53.3c0-0.7,0.6-1.3,1.3-1.3c0.7,0,1.3,0.6,1.3,1.3v16
		c0,0.7-0.6,1.3-1.3,1.3c-0.7,0-1.3-0.6-1.3-1.3V53.3z"/>
	<polygon points="33.3,73.3 33.3,73.3 33.3,73.3 	"/>
	<path d="M33.3,73.3c1.1,0,2.1-0.4,2.8-1.2c0.7-0.8,1.2-1.8,1.2-2.8v-16c0-1.4-0.8-2.7-2-3.5c-1.2-0.7-2.8-0.7-4,0
		c-1.2,0.7-2,2-2,3.5v16c0,1.1,0.4,2.1,1.2,2.8C31.3,72.9,32.3,73.3,33.3,73.3z M32,53.3c0-0.7,0.6-1.3,1.3-1.3
		c0.7,0,1.3,0.6,1.3,1.3v16c0,0.7-0.6,1.3-1.3,1.3c-0.7,0-1.3-0.6-1.3-1.3V53.3z"/>
	<path d="M46.7,73.3c1.1,0,2.1-0.4,2.8-1.2c0.7-0.8,1.2-1.8,1.2-2.8v-16c0-1.4-0.8-2.7-2-3.5c-1.2-0.7-2.8-0.7-4,0
		c-1.2,0.7-2,2-2,3.5v16c0,1.1,0.4,2.1,1.2,2.8C44.6,72.9,45.6,73.3,46.7,73.3z M45.3,53.3c0-0.7,0.6-1.3,1.3-1.3
		c0.7,0,1.3,0.6,1.3,1.3v16c0,0.7-0.6,1.3-1.3,1.3c-0.7,0-1.3-0.6-1.3-1.3V53.3z"/>
	<polygon points="46.7,73.3 46.7,73.3 46.7,73.3 	"/>
	<path d="M60,73.3c1.1,0,2.1-0.4,2.8-1.2c0.7-0.8,1.2-1.8,1.2-2.8v-16c0-1.4-0.8-2.7-2-3.5c-1.2-0.7-2.8-0.7-4,0c-1.2,0.7-2,2-2,3.5
		v16c0,1.1,0.4,2.1,1.2,2.8C57.9,72.9,58.9,73.3,60,73.3z M58.7,53.3c0-0.7,0.6-1.3,1.3-1.3c0.7,0,1.3,0.6,1.3,1.3v16
		c0,0.7-0.6,1.3-1.3,1.3c-0.7,0-1.3-0.6-1.3-1.3V53.3z"/>
	<polygon points="60,73.3 60,73.3 60,73.3 	"/>
	<path d="M79.3,36c-1-1.6-2.7-2.7-4.6-2.7l0,0c0-3.7-1.4-7.2-4-9.9v-4.8c0-0.4-0.1-0.7-0.4-0.9c-0.2-0.2-0.6-0.4-0.9-0.4h-0.8
		l1.7-1.7c1.3-1.3,1.8-3.2,1.3-4.9c-0.5-1.8-1.8-3.1-3.6-3.6c-1.8-0.5-3.6,0-4.9,1.3l-8.9,8.9H52v-4c0-0.3-0.1-0.6-0.3-0.8l-3.7-5
		V2.7c0-0.4-0.1-0.7-0.4-0.9c-0.2-0.2-0.6-0.4-0.9-0.4H29.3c-0.7,0-1.3,0.6-1.3,1.3v4.9l-3.7,5l0,0C24.1,12.8,24,13,24,13.3v4.8
		c-0.8-0.5-1.7-0.8-2.7-0.8V12c0-0.4-0.1-0.7-0.4-0.9c-0.2-0.2-0.6-0.4-0.9-0.4h-8c-0.7,0-1.3,0.6-1.3,1.3v5.3
		c-1.4,0-2.8,0.6-3.8,1.7c-1,1-1.6,2.4-1.6,3.8v10.5c-1.9,0-3.7,1-4.6,2.7c-1,1.6-1,3.7,0,5.3C1.7,43,3.4,44,5.3,44h0.2l4.3,28.2
		c0.3,1.8,1.2,3.5,2.6,4.6c1.4,1.2,3.2,1.8,5,1.8h45.2c1.8,0,3.6-0.6,5-1.8c1.4-1.2,2.3-2.8,2.6-4.6L74.5,44h0.2
		c1.9,0,3.7-1,4.6-2.7C80.2,39.7,80.2,37.6,79.3,36z M69.4,26c1.7,2.1,2.6,4.6,2.6,7.3h-5.3C66.7,30.7,67.7,28.1,69.4,26z
		 M63.2,22.7l2.7-2.7H68v2.7H63.2z M66.6,25.3c-1.6,2.4-2.5,5.1-2.6,8H52.6l8-8H66.6z M64.9,10.3c0.5-0.5,1.1-0.7,1.7-0.7
		c0.6,0,1.3,0.3,1.7,0.7c0.5,0.5,0.7,1.1,0.7,1.7c0,0.6-0.3,1.3-0.7,1.7L41.7,40.4c-0.5,0.5-1.1,0.7-1.7,0.7c-0.6,0-1.3-0.3-1.7-0.7
		c-0.5-0.5-0.7-1.1-0.7-1.7c0-0.6,0.3-1.3,0.7-1.7L64.9,10.3z M49.3,22.1V20h2.1L49.3,22.1z M49.3,13.8l0,3.6H48
		c-0.7,0-1.3,0.6-1.3,1.3V24c0,0.2,0.1,0.4,0.2,0.6L44,27.4V13.8l2.7-3.6L49.3,13.8z M30.7,4h14.7v2.7H30.7V4z M30,9.3h14L42,12H28
		L30,9.3z M26.7,14.7h14.7v15.4l-3.2,3.2H26.7V14.7z M13.3,13.3h5.3v4h-5.3V13.3z M8,28v-5.2c0-0.7,0.3-1.5,0.8-2
		c0.5-0.5,1.2-0.8,2-0.8h10.4c0.7,0,1.5,0.3,2,0.8c0.5,0.5,0.8,1.2,0.8,2v10.5H8l0-2.7h13.3V28H8z M5.3,41.3c-0.7,0-1.4-0.3-1.9-0.8
		c-0.5-0.5-0.8-1.2-0.8-1.9v0c0-0.7,0.3-1.4,0.8-1.9C3.9,36.3,4.6,36,5.3,36h30.3c-0.5,0.8-0.8,1.7-0.8,2.7s0.3,1.9,0.8,2.7H5.3z
		 M67.5,71.8c-0.2,1.2-0.8,2.3-1.7,3c-0.9,0.8-2.1,1.2-3.2,1.2H17.4c-1.2,0-2.3-0.4-3.2-1.2c-0.9-0.8-1.5-1.8-1.7-3L8.2,44h63.6
		L67.5,71.8z M77,40c-0.5,0.8-1.4,1.3-2.3,1.3H44.6l5.3-5.3h24.8c1,0,1.8,0.5,2.3,1.3C77.5,38.2,77.5,39.2,77,40z"/>
</g>
</svg>
