<svg id="Capa_1" data-name="Capa 1" xmlns="http://www.w3.org/2000/svg" viewBox="0 0 57.41 64.84"><path d="M71,43.12a9.5,9.5,0,0,0-9.49-9.49H36.32L34.53,19.85v-.08c-1.13-6.32-3-12.4-11.83-12.4H15.81a2.71,2.71,0,0,0-1.7.73,2.51,2.51,0,0,0-.49,1.79L18.32,42a.88.88,0,0,0,.16.41,4.31,4.31,0,0,0-.08,1l5.19,27a2.24,2.24,0,0,0,2.19,1.79H51.63a2.19,2.19,0,0,0,2.19-2l1.3-10C61.44,58.68,71,53.74,70.84,43.77a1.45,1.45,0,0,0,.17-.65m-9.49-6.57a6.6,6.6,0,0,1,6.16,4.3H37.29l-.57-4.3ZM16.62,10.37l6.16.08c4.3,0,7.46,1.79,8.83,9.08l3.08,21.4H21Zm37.85,47a2.16,2.16,0,0,0-1.78,1.87l-1.3,10.13h-25L21.4,44l46.77-.16c0,10.7-13.13,13.45-13.7,13.53" transform="translate(-13.6 -7.37)"/></svg>