<?xml version="1.0" encoding="utf-8"?>
<!-- Generator: Adobe Illustrator 24.0.1, SVG Export Plug-In . SVG Version: 6.00 Build 0)  -->
<svg version="1.1" id="Capa_1" xmlns="http://www.w3.org/2000/svg" xmlns:xlink="http://www.w3.org/1999/xlink" x="0px" y="0px"
	 viewBox="0 0 80 80" style="enable-background:new 0 0 80 80;" xml:space="preserve">
<g>
	<path d="M78.6,29.6c-1.8-6.8-5.5-13-10.5-17.9C64.4,8,60,5,55.2,3c-4.8-2-10-3-15.3-3l0,0C29.3,0,19.2,4.2,11.7,11.7
		C4.2,19.2,0,29.3,0,39.9c0,10.6,4.2,20.7,11.7,28.2c4.9,5,11.1,8.6,17.9,10.5c6.8,1.8,13.9,1.9,20.7,0.1c6.8-1.8,13-5.4,18-10.4
		c5-5,8.5-11.2,10.4-18C80.5,43.5,80.4,36.4,78.6,29.6z M66.3,66.3c-7,7-16.5,10.9-26.3,10.9c-9.9,0-19.4-3.9-26.3-10.9
		c-7-7-10.9-16.5-10.9-26.3s3.9-19.4,10.9-26.3c7-7,16.5-10.9,26.3-10.9c9.9,0,19.4,3.9,26.3,10.9c7,7,10.9,16.5,10.9,26.3
		S73.2,59.3,66.3,66.3z"/>
	<path d="M39.9,8L39.9,8C22.3,8,8,22.3,8,39.9C8,46.5,10,53,13.9,58.4c3.8,5.4,9.2,9.5,15.5,11.7c0.2,1,0.8,1.9,1.6,2.4
		c0.8,0.6,1.9,0.8,2.9,0.6c1-0.2,1.9-0.7,2.5-1.5c3.1,0.3,6.3,0.2,9.4-0.4c0.6,1,1.6,1.7,2.8,1.8c1.2,0.2,2.3-0.2,3.2-0.9
		c0.9-0.8,1.4-1.9,1.4-3v-0.2c5.6-2.5,10.3-6.6,13.6-11.8c3.3-5.1,5.1-11.1,5-17.3C71.8,22.3,57.5,8,39.9,8z M35.3,36.7L35.3,36.7
		c-0.4,0.2-0.7,0.7-0.7,1.2v31.3c0,0.7-0.6,1.3-1.3,1.3c-0.7,0-1.3-0.6-1.3-1.3V37.9c0-0.5-0.3-0.9-0.7-1.2c-1.2-0.7-2-2-2-3.5h8
		C37.2,34.7,36.5,36,35.3,36.7z M50.6,69.2c0,0.7-0.6,1.3-1.3,1.3c-0.7,0-1.3-0.6-1.3-1.3V45.2c0-0.4-0.1-0.7-0.4-0.9
		c-0.2-0.2-0.6-0.4-0.9-0.4h-1.3V26.6c0-1.1,0.4-2.1,1.2-2.8c0.7-0.7,1.8-1.2,2.8-1.2h1.3L50.6,69.2z M64.9,55.2
		C62.1,59.8,58,63.5,53.2,66V21.3c0-0.4-0.1-0.7-0.4-0.9c-0.2-0.2-0.6-0.4-0.9-0.4h-2.7c-1.8,0-3.5,0.7-4.7,2
		c-1.2,1.2-1.9,2.9-2,4.7v18.6c0,0.4,0.1,0.7,0.4,0.9c0.2,0.2,0.6,0.4,0.9,0.4h1.3v22.1c-1.8,0.3-3.5,0.5-5.3,0.5
		c-0.9,0-1.8,0-2.7-0.1V38.6c1.7-1.3,2.7-3.2,2.7-5.3v-12c0-0.7-0.6-1.3-1.3-1.3c-0.7,0-1.3,0.6-1.3,1.3v9.3h-2.7v-9.3
		c0-0.7-0.6-1.3-1.3-1.3c-0.7,0-1.3,0.6-1.3,1.3v9.3h-2.7v-9.3c0-0.7-0.6-1.3-1.3-1.3c-0.7,0-1.3,0.6-1.3,1.3v12
		c0,2.1,1,4.1,2.7,5.3v28.6c-5.5-2.1-10.2-5.9-13.5-10.8c-3.3-4.9-5.1-10.6-5.1-16.5c0-16.1,13.1-29.3,29.3-29.3
		s29.3,13.1,29.3,29.3C69.2,45.3,67.7,50.6,64.9,55.2z"/>
</g>
</svg>
