<?xml version="1.0" encoding="utf-8"?>
<!-- Generator: Adobe Illustrator 24.0.1, SVG Export Plug-In . SVG Version: 6.00 Build 0)  -->
<svg version="1.1" id="Capa_1" xmlns="http://www.w3.org/2000/svg" xmlns:xlink="http://www.w3.org/1999/xlink" x="0px" y="0px"
	 viewBox="0 0 80 80" style="enable-background:new 0 0 80 80;" xml:space="preserve">
<g>
	<path d="M79.7,38.5c-0.5-1.1-13-27.3-39.9-27.3S0.8,37.5,0.3,38.5c-0.4,0.9-0.4,2,0,2.9c0.5,1.1,12.5,27.4,39.4,27.4
		s39.4-26.3,39.8-27.4C80.1,40.5,80.1,39.5,79.7,38.5z M39.7,61.6c-18.9,0-29.3-16.5-32-21.6c2.8-5.1,13.2-21.6,32-21.6
		c18.8,0,29.6,16.5,32.4,21.6C69.3,45.2,58.6,61.6,39.7,61.6z"/>
	<path d="M40,24.5c-8.6,0-15.5,7-15.5,15.5S31.4,55.5,40,55.5S55.5,48.6,55.5,40S48.6,24.5,40,24.5z M40,48.3
		c-4.5,0-8.3-3.7-8.3-8.3s3.7-8.3,8.3-8.3s8.3,3.7,8.3,8.3S44.5,48.3,40,48.3z"/>
</g>
</svg>
