<?xml version="1.0" encoding="utf-8"?>
<!-- Generator: Adobe Illustrator 24.0.1, SVG Export Plug-In . SVG Version: 6.00 Build 0)  -->
<svg version="1.1" id="Capa_1" xmlns="http://www.w3.org/2000/svg" xmlns:xlink="http://www.w3.org/1999/xlink" x="0px" y="0px"
	 viewBox="0 0 80 80" style="enable-background:new 0 0 80 80;" xml:space="preserve">
<g>
	<path d="M78.6,75.2h-4.1V43.4h4.1c0.5,0,0.9-0.2,1.1-0.6c0.3-0.4,0.3-0.9,0.1-1.3l-8.3-20.7c-0.2-0.5-0.7-0.9-1.3-0.9H45.5
		c-0.1,0-0.1,0-0.2,0l-3.9-3.6v-3.3h12.4c0.4,0,0.7-0.1,1-0.4c0.3-0.3,0.4-0.6,0.4-1V3.4c0-0.4-0.1-0.7-0.4-1
		c-0.3-0.3-0.6-0.4-1-0.4H40c-0.8,0-1.4,0.6-1.4,1.4v13L34.7,20c-0.1,0-0.1,0-0.2,0H9.7c-0.6,0-1.1,0.3-1.3,0.9L0.1,41.6
		C-0.1,42,0,42.5,0.2,42.8c0.3,0.4,0.7,0.6,1.1,0.6h4.1v31.7H1.4c-0.8,0-1.4,0.6-1.4,1.4s0.6,1.4,1.4,1.4h77.2
		c0.8,0,1.4-0.6,1.4-1.4S79.4,75.2,78.6,75.2z M41.4,4.8h11v5.5h-11V4.8z M24.8,75.2H8.3V43.4h16.6V75.2z M25.1,28.9
		c0,0.1-0.1,0.1-0.1,0.2c0,0.1,0,0.1,0,0.2c-0.1,0.1-0.1,0.2-0.2,0.4v11H3.4l7.2-17.9h21.1l-6.4,5.9C25.2,28.7,25.2,28.8,25.1,28.9z
		 M45.5,75.2h-11V55.9h11V75.2z M52.4,75.2h-4.1V54.5c0-0.4-0.1-0.7-0.4-1c-0.3-0.3-0.6-0.4-1-0.4H33.1c-0.8,0-1.4,0.6-1.4,1.4v20.7
		h-4.1V30.3L40,18.9l12.4,11.4V75.2z M54.9,28.7l-6.6-5.9h21.1l7.2,17.9H55.2v-11c0-0.1,0-0.2,0-0.3c0-0.1,0-0.1,0-0.2
		c0-0.1-0.1-0.1-0.1-0.2C55,28.9,54.9,28.8,54.9,28.7z M71.7,75.2H55.2V43.4h16.6V75.2z"/>
	<path d="M13.8,62.8h5.5c0.4,0,0.7-0.1,1-0.4c0.3-0.3,0.4-0.6,0.4-1v-5.5c0-0.4-0.1-0.7-0.4-1c-0.3-0.3-0.6-0.4-1-0.4h-5.5
		c-0.8,0-1.4,0.6-1.4,1.4v5.5c0,0.4,0.1,0.7,0.4,1C13.1,62.6,13.4,62.8,13.8,62.8z M15.2,57.2h2.8V60h-2.8V57.2z"/>
	<path d="M60.7,62.8h5.5c0.4,0,0.7-0.1,1-0.4c0.3-0.3,0.4-0.6,0.4-1v-5.5c0-0.4-0.1-0.7-0.4-1c-0.3-0.3-0.6-0.4-1-0.4h-5.5
		c-0.8,0-1.4,0.6-1.4,1.4v5.5c0,0.4,0.1,0.7,0.4,1C60,62.6,60.3,62.8,60.7,62.8z M62.1,57.2h2.8V60h-2.8V57.2z"/>
	<path d="M34.5,37.9c0,1.5,0.6,2.9,1.6,3.9c1,1,2.4,1.6,3.9,1.6c1.5,0,2.9-0.6,3.9-1.6c1-1,1.6-2.4,1.6-3.9c0-1.5-0.6-2.9-1.6-3.9
		c-1-1-2.4-1.6-3.9-1.6c-1.5,0-2.9,0.6-3.9,1.6C35.1,35.1,34.5,36.5,34.5,37.9z M38,36c0.5-0.5,1.2-0.8,2-0.8c0.7,0,1.4,0.3,2,0.8
		c0.5,0.5,0.8,1.2,0.8,2c0,0.7-0.3,1.4-0.8,2c-0.5,0.5-1.2,0.8-2,0.8c-0.7,0-1.4-0.3-2-0.8c-0.5-0.5-0.8-1.2-0.8-2
		C37.2,37.2,37.5,36.5,38,36z"/>
</g>
</svg>
